<svg xmlns="http://www.w3.org/2000/svg" viewBox="0 0 1200 800">
  <defs>
    <linearGradient id="roomBg" x1="0" y1="0" x2="1" y2="1">
      <stop offset="0" stop-color="#075e54"/>
      <stop offset="0.55" stop-color="#128c7e"/>
      <stop offset="1" stop-color="#34b7f1"/>
    </linearGradient>
    <pattern id="chatPattern" width="120" height="120" patternUnits="userSpaceOnUse">
      <path d="M18 26h48c8 0 14 6 14 14v14c0 8-6 14-14 14H42L25 82V68h-7c-8 0-14-6-14-14V40c0-8 6-14 14-14z" fill="#ffffff" opacity="0.13"/>
      <path d="M68 78h36c7 0 12 5 12 12v10c0 7-5 12-12 12H86l-13 10v-10h-5c-7 0-12-5-12-12V90c0-7 5-12 12-12z" fill="#ffffff" opacity="0.11"/>
      <circle cx="96" cy="28" r="4" fill="#ffffff" opacity="0.16"/>
    </pattern>
  </defs>
  <rect width="1200" height="800" fill="url(#roomBg)"/>
  <rect width="1200" height="800" fill="url(#chatPattern)"/>
  <g opacity="0.16">
    <rect x="110" y="126" width="330" height="78" rx="20" fill="#ffffff"/>
    <rect x="760" y="244" width="330" height="78" rx="20" fill="#dcf8c6"/>
    <rect x="146" y="392" width="390" height="78" rx="20" fill="#ffffff"/>
    <rect x="668" y="526" width="420" height="78" rx="20" fill="#dcf8c6"/>
  </g>
</svg>
